HIERARCHY
ROOT hip
{
  OFFSET 71.448 83.4533 46.0697
  CHANNELS 6 Xposition Yposition Zposition Zrotation Xrotation Yrotation
  JOINT abdomen
  {
    OFFSET 0 20.6881 -0.73152
    CHANNELS 3 Zrotation Xrotation Yrotation
    JOINT chest
    {
      OFFSET 0 11.7043 -0.48768
      CHANNELS 3 Zrotation Xrotation Yrotation
      JOINT neck
      {
        OFFSET 0 22.1894 -2.19456
        CHANNELS 3 Zrotation Xrotation Yrotation
        JOINT head
        {
          OFFSET -0.24384 7.07133 1.2192
          CHANNELS 3 Zrotation Xrotation Yrotation
          JOINT leftEye
          {
            OFFSET 4.14528 8.04674 8.04672
            CHANNELS 3 Zrotation Xrotation Yrotation
            End Site
            {
              OFFSET 1 0 0
            }
          }
          JOINT rightEye
          {
            OFFSET -3.6576 8.04674 8.04672
            CHANNELS 3 Zrotation Xrotation Yrotation
            End Site
            {
              OFFSET 1 0 0
            }
          }
        }
      }
      JOINT rCollar
      {
        OFFSET -2.68224 19.2634 -4.8768
        CHANNELS 3 Zrotation Xrotation Yrotation
        JOINT rShldr
        {
          OFFSET -8.77824 -1.95073 1.46304
          CHANNELS 3 Zrotation Xrotation Yrotation
          JOINT rForeArm
          {
            OFFSET -28.1742 -1.7115 0.48768
            CHANNELS 3 Zrotation Xrotation Yrotation
            JOINT rHand
            {
              OFFSET -22.5879 0.773209 7.07136
              CHANNELS 3 Zrotation Xrotation Yrotation
              JOINT rThumb1
              {
                OFFSET -1.2192 -0.487915 3.41376
                CHANNELS 3 Zrotation Xrotation Yrotation
                JOINT rThumb2
                {
                  OFFSET -3.37035 -0.52449 3.41376
                  CHANNELS 3 Zrotation Xrotation Yrotation
                  End Site
                  {
                    OFFSET -1.78271 -1.18214 1.43049
                  }
                }
              }
              JOINT rIndex1
              {
                OFFSET -7.75947 0.938293 5.60832
                CHANNELS 3 Zrotation Xrotation Yrotation
                JOINT rIndex2
                {
                  OFFSET -2.54057 -0.884171 1.56538
                  CHANNELS 3 Zrotation Xrotation Yrotation
                  End Site
                  {
                    OFFSET -1.62519 -0.234802 1.16502
                  }
                }
              }
              JOINT rMid1
              {
                OFFSET -8.24714 1.18213 3.41376
                CHANNELS 3 Zrotation Xrotation Yrotation
                JOINT rMid2
                {
                  OFFSET -3.10165 -0.590103 1.0647
                  CHANNELS 3 Zrotation Xrotation Yrotation
                  End Site
                  {
                    OFFSET -2.48547 -0.328903 0.83742
                  }
                }
              }
              JOINT rRing1
              {
                OFFSET -8.82822 0.546677 1.51678
                CHANNELS 3 Zrotation Xrotation Yrotation
                JOINT rRing2
                {
                  OFFSET -2.60934 -0.819778 -0.0198488
                  CHANNELS 3 Zrotation Xrotation Yrotation
                  End Site
                  {
                    OFFSET -2.33842 -0.294052 0.168128
                  }
                }
              }
              JOINT rPinky1
              {
                OFFSET -8.27202 -0.0477905 -0.4584
                CHANNELS 3 Zrotation Xrotation Yrotation
                JOINT rPinky2
                {
                  OFFSET -1.82734 -0.647385 -0.700984
                  CHANNELS 3 Zrotation Xrotation Yrotation
                  End Site
                  {
                    OFFSET -1.69225 -0.51767 -0.607171
                  }
                }
              }
            }
          }
        }
      }
      JOINT lCollar
      {
        OFFSET 2.68224 19.2634 -4.8768
        CHANNELS 3 Zrotation Xrotation Yrotation
        JOINT lShldr
        {
          OFFSET 8.77824 -1.95073 1.46304
          CHANNELS 3 Zrotation Xrotation Yrotation
          JOINT lForeArm
          {
            OFFSET 28.1742 -1.7115 0.48768
            CHANNELS 3 Zrotation Xrotation Yrotation
            JOINT lHand
            {
              OFFSET 22.5879 0.773209 7.07136
              CHANNELS 3 Zrotation Xrotation Yrotation
              JOINT lThumb1
              {
                OFFSET 1.2192 -0.487915 3.41376
                CHANNELS 3 Zrotation Xrotation Yrotation
                JOINT lThumb2
                {
                  OFFSET 3.37035 -0.52449 3.41376
                  CHANNELS 3 Zrotation Xrotation Yrotation
                  End Site
                  {
                    OFFSET 1.78271 -1.18214 1.43049
                  }
                }
              }
              JOINT lIndex1
              {
                OFFSET 7.75947 0.938293 5.60832
                CHANNELS 3 Zrotation Xrotation Yrotation
                JOINT lIndex2
                {
                  OFFSET 2.54057 -0.884171 1.56538
                  CHANNELS 3 Zrotation Xrotation Yrotation
                  End Site
                  {
                    OFFSET 1.62519 -0.234802 1.16502
                  }
                }
              }
              JOINT lMid1
              {
                OFFSET 8.24714 1.18213 3.41376
                CHANNELS 3 Zrotation Xrotation Yrotation
                JOINT lMid2
                {
                  OFFSET 3.10165 -0.590103 1.0647
                  CHANNELS 3 Zrotation Xrotation Yrotation
                  End Site
                  {
                    OFFSET 2.48547 -0.328903 0.83742
                  }
                }
              }
              JOINT lRing1
              {
                OFFSET 8.82822 0.546677 1.51678
                CHANNELS 3 Zrotation Xrotation Yrotation
                JOINT lRing2
                {
                  OFFSET 2.60934 -0.819778 -0.0198488
                  CHANNELS 3 Zrotation Xrotation Yrotation
                  End Site
                  {
                    OFFSET 2.33842 -0.294052 0.168128
                  }
                }
              }
              JOINT lPinky1
              {
                OFFSET 8.27202 -0.0477905 -0.4584
                CHANNELS 3 Zrotation Xrotation Yrotation
                JOINT lPinky2
                {
                  OFFSET 1.82734 -0.647385 -0.700984
                  CHANNELS 3 Zrotation Xrotation Yrotation
                  End Site
                  {
                    OFFSET 1.69225 -0.51767 -0.607171
                  }
                }
              }
            }
          }
        }
      }
    }
  }
  JOINT rButtock
  {
    OFFSET -8.77824 4.35084 1.2192
    CHANNELS 3 Zrotation Xrotation Yrotation
    JOINT rThigh
    {
      OFFSET 0 -1.70687 -2.19456
      CHANNELS 3 Zrotation Xrotation Yrotation
      JOINT rShin
      {
        OFFSET 0 -36.8199 0.73152
        CHANNELS 3 Zrotation Xrotation Yrotation
        JOINT rFoot
        {
          OFFSET 0.73152 -45.1104 -5.12064
          CHANNELS 3 Zrotation Xrotation Yrotation
          End Site
          {
            OFFSET -1.1221 -3.69964 12.103
          }
        }
      }
    }
  }
  JOINT lButtock
  {
    OFFSET 8.77824 4.35084 1.2192
    CHANNELS 3 Zrotation Xrotation Yrotation
    JOINT lThigh
    {
      OFFSET 0 -1.70687 -2.19456
      CHANNELS 3 Zrotation Xrotation Yrotation
      JOINT lShin
      {
        OFFSET 0 -36.8199 0.73152
        CHANNELS 3 Zrotation Xrotation Yrotation
        JOINT lFoot
        {
          OFFSET -0.73152 -45.1104 -5.12064
          CHANNELS 3 Zrotation Xrotation Yrotation
          End Site
          {
            OFFSET 1.1221 -3.69964 12.103
          }
        }
      }
    }
  }
}
MOTION
Frames:	4
Frame Time:	0.00833333
-7.88831 85.1388 129.421 -0.311916 -0.00136748 0.00530358 0.410575 -0.00336393 0.0117802 0.113455 -0.00539469 0.0196586 1.2986e-014 7.95139e-016 -1.36665e-016 3.89214e-014 9.54166e-015 -3.71168e-016 -0 0 0 -0 0 0 6.50906e-015 -4.65902e-018 4.96962e-017 1.37568e-013 1.61513e-016 3.97569e-016 2.34248e-012 -7.0012e-013 -6.67917e-014 2.6741e-011 6.85062e-013 -2.03556e-013 6.30873e-011 -3.50454e-014 -5.56597e-013 1.08936e-010 -6.36111e-014 -9.67684e-013 6.30895e-011 -3.65764e-014 -5.66139e-013 7.73091 5.47488 0.417314 6.30872e-011 -3.60794e-014 -5.50236e-013 2.90554 0.965183 0.102902 6.30874e-011 -3.56818e-014 -5.58187e-013 10.2786 0.731801 0.0259123 6.30795e-011 -3.18055e-014 -5.50236e-013 2.22167 -0.733487 -0.20892 6.41237e-015 -5.24139e-018 -1.49089e-016 1.33259e-013 2.98177e-016 -1.59028e-015 2.33328e-012 6.97933e-013 -1.59028e-014 2.67485e-011 -7.0909e-013 -2.38542e-013 6.30869e-011 -3.05461e-014 -5.56597e-013 1.08965e-010 -5.40694e-014 -9.63708e-013 6.30843e-011 -3.37934e-014 -5.50236e-013 -7.73091 5.47488 -0.417314 6.30884e-011 -3.15074e-014 -5.62958e-013 -2.90554 0.965183 -0.102902 6.30809e-011 -3.10104e-014 -5.55802e-013 -10.2786 0.731801 -0.0259123 6.30948e-011 -2.70347e-014 -5.62958e-013 -2.22167 -0.733487 0.20892 -2.03217e-016 0 -3.88251e-019 0.770898 -4.17179 -0.0656917 -0.00265696 2.00547 -0.018289 -0.462134 2.16691 0.0961418 2.03217e-016 0 3.88251e-019 -0.142942 -2.55997 0.0260621 0.00716108 -0.914059 0.0621532 0.45347 3.47456 -0.121181 
-7.71108 83.5398 124.434 -5.05784 4.61471 49.0213 -1.15344 -7.6377 -1.00774 0.952698 3.42883 -0.375481 -0.33598 4.06957 -0.973105 1.72616 -6.86433 -1.5128 -0 0 0 -0 0 0 4.22074e-014 -6.03596e-014 3.48327e-014 22.6543 2.36681 -2.46775 -4.7328 -2.26342 7.26546 0.000706271 -0.590855 -0.0830234 -1.71604e-010 -1.8427e-010 6.31651e-010 -2.95962e-010 -3.17571e-010 1.09304e-009 -1.71602e-010 -1.84269e-010 6.31643e-010 7.73091 5.47488 0.417314 -1.71605e-010 -1.8427e-010 6.31656e-010 2.90554 0.965183 0.102902 -1.71602e-010 -1.84269e-010 6.31648e-010 10.2786 0.731801 0.0259123 -1.71611e-010 -1.84266e-010 6.31655e-010 2.22167 -0.733487 -0.20892 4.21492e-014 -6.03594e-014 3.46487e-014 -20.7288 2.29748 0.703576 2.06405 -0.719578 -3.42198 -0.0288433 3.77095 -0.525842 1.2021e-010 -3.8926e-010 -1.08753e-009 1.96215e-010 -6.74426e-010 -1.88003e-009 1.20206e-010 -3.89263e-010 -1.08752e-009 -7.73091 5.47488 -0.417314 1.20211e-010 -3.89262e-010 -1.08753e-009 -2.90554 0.965183 -0.102902 1.20201e-010 -3.89261e-010 -1.08753e-009 -10.2786 0.731801 -0.0259123 1.20214e-010 -3.89257e-010 -1.08753e-009 -2.22167 -0.733487 0.20892 -2.03217e-016 0 -3.88251e-019 0.885077 -11.7583 1.35828 0.00261284 4.52658 0.0451423 -0.643558 -2.14919 -1.23087 2.03217e-016 0 3.88251e-019 -1.09363 -9.33307 -1.83723 0.00807516 1.29279 0.0372453 0.499168 1.92817 -1.78675 
-7.69988 83.4967 124.451 -13.3907 -2.57765 100.074 -3.11522 -15.6946 -2.15293 1.89343 7.05955 -0.799288 -0.543974 8.37066 -2.01759 3.14884 -14.1171 -3.18386 -0 0 0 -0 0 0 8.04542e-014 -1.35772e-013 7.2926e-014 46.823 4.86182 -5.08552 -9.11491 -4.53308 14.9787 -0.000408512 -1.21086 -0.170172 -4.02741e-010 -4.30811e-010 1.38535e-009 -6.94636e-010 -7.42623e-010 2.39725e-009 -4.02739e-010 -4.30809e-010 1.38535e-009 7.73091 5.47488 0.417314 -4.02743e-010 -4.3081e-010 1.38536e-009 2.90554 0.965183 0.102902 -4.02738e-010 -4.30809e-010 1.38535e-009 10.2786 0.731801 0.0259123 -4.02748e-010 -4.30807e-010 1.38535e-009 2.22167 -0.733487 -0.20892 8.04363e-014 -1.35771e-013 7.27583e-014 -42.7047 4.70911 1.45118 4.15112 -1.47095 -7.03851 0.016645 7.77136 -1.09147 2.3991e-010 -8.39982e-010 -2.36924e-009 3.89523e-010 -1.45534e-009 -4.09623e-009 2.39904e-010 -8.39987e-010 -2.36922e-009 -7.73091 5.47488 -0.417314 2.39911e-010 -8.39986e-010 -2.36924e-009 -2.90554 0.965183 -0.102902 2.39899e-010 -8.39985e-010 -2.36923e-009 -10.2786 0.731801 -0.0259123 2.39911e-010 -8.39982e-010 -2.36924e-009 -2.22167 -0.733487 0.20892 -2.03217e-016 0 -3.88251e-019 1.43604 -19.7546 2.97597 0.00202998 7.19088 0.112795 -1.05405 -6.70681 -2.65121 2.03217e-016 0 3.88251e-019 -2.60057 -16.4607 -3.92096 0.0112217 3.62376 0.0109525 0.449623 0.295628 -3.54804 
-7.69074 83.4724 124.454 -10.6958 -17.4135 144.566 -5.15511 -22.8763 -3.27803 2.77524 10.2953 -1.18279 -0.58529 12.1945 -2.97924 4.0296 -20.5335 -4.81227 -0 0 0 -0 0 0 1.13604e-013 -1.81069e-013 1.04399e-013 68.5767 7.04758 -7.45355 -12.5136 -6.35445 21.9209 -0.00302026 -1.77255 -0.249176 -6.40986e-010 -5.52739e-010 1.89607e-009 -1.10576e-009 -9.52586e-010 3.28106e-009 -6.40984e-010 -5.52735e-010 1.89606e-009 7.73091 5.47488 0.417314 -6.40989e-010 -5.52737e-010 1.89607e-009 2.90554 0.965183 0.102902 -6.40981e-010 -5.52737e-010 1.89606e-009 10.2786 0.731801 0.0259123 -6.40992e-010 -5.52735e-010 1.89607e-009 2.22167 -0.733487 -0.20892 1.13623e-013 -1.81068e-013 1.04244e-013 -62.3567 6.88826 2.12437 5.93567 -2.12796 -10.2723 0.124593 11.309 -1.60529 2.34455e-010 -1.16772e-009 -3.26148e-009 3.70716e-010 -2.02317e-009 -5.63816e-009 2.34448e-010 -1.16772e-009 -3.26146e-009 -7.73091 5.47488 -0.417314 2.34456e-010 -1.16772e-009 -3.26147e-009 -2.90554 0.965183 -0.102902 2.34442e-010 -1.16772e-009 -3.26147e-009 -10.2786 0.731801 -0.0259123 2.34453e-010 -1.16772e-009 -3.26147e-009 -2.22167 -0.733487 0.20892 -2.03217e-016 0 -3.88251e-019 2.36469 -26.8658 4.61989 -0.00380049 9.56876 0.173981 -1.61393 -10.7578 -3.95173 2.03217e-016 0 3.88251e-019 -4.41236 -22.7825 -5.95701 0.0156647 5.7065 -0.0126458 0.321239 -1.15719 -5.11635 
